<?xml version="1.0" encoding="utf-8"?>
<!-- Generator: Adobe Illustrator 23.0.0, SVG Export Plug-In . SVG Version: 6.00 Build 0)  -->
<svg version="1.1" id="Layer_1" xmlns="http://www.w3.org/2000/svg" xmlns:xlink="http://www.w3.org/1999/xlink" x="0px" y="0px"
	 viewBox="0 0 612 513" style="enable-background:new 0 0 612 513;" xml:space="preserve">
<style type="text/css">
	.st0{fill:url(#SVGID_1_);}
	.st1{fill:url(#SVGID_2_);}
	.st2{fill:url(#SVGID_3_);}
	.st3{fill:url(#SVGID_4_);}
	.st4{fill:url(#SVGID_5_);}
	.st5{fill:url(#SVGID_6_);}
	.st6{fill:url(#SVGID_7_);}
	.st7{fill:url(#SVGID_8_);}
	.st8{fill:url(#SVGID_9_);}
	.st9{fill:url(#SVGID_10_);}
	.st10{fill:url(#SVGID_11_);}
	.st11{fill:url(#SVGID_12_);}
	.st12{fill:url(#SVGID_13_);}
	.st13{fill:url(#SVGID_14_);}
	.st14{fill:url(#SVGID_15_);}
	.st15{fill:url(#SVGID_16_);}
	.st16{fill:url(#SVGID_17_);}
	.st17{fill:url(#SVGID_18_);}
	.st18{fill:url(#SVGID_19_);}
	.st19{fill:url(#SVGID_20_);}
	.st20{fill:url(#SVGID_21_);}
	.st21{fill:url(#SVGID_22_);}
	.st22{fill:url(#SVGID_23_);}
	.st23{fill:url(#SVGID_24_);}
	.st24{fill:url(#SVGID_25_);}
	.st25{fill:url(#SVGID_26_);}
	.st26{fill:#009345;}
</style>
<linearGradient id="SVGID_1_" gradientUnits="userSpaceOnUse" x1="77.0353" y1="343.8836" x2="92.4484" y2="343.8836">
	<stop  offset="0" style="stop-color:#000000"/>
	<stop  offset="0.5027" style="stop-color:#000000"/>
	<stop  offset="1" style="stop-color:#000000"/>
</linearGradient>
<path class="st0" d="M84.74,326.76c-5.04,0-7.71,3.04-7.71,8.18v17.89c0,5.14,2.66,8.18,7.71,8.18c5.04,0,7.71-3.04,7.71-8.18v-4.71
	H87.5v5.09c0,2.19-1.05,3.04-2.62,3.04c-1.57,0-2.62-0.86-2.62-3.04v-18.6c0-2.19,1.05-3.09,2.62-3.09c1.57,0,2.62,0.9,2.62,3.09
	v3.85h4.95v-3.52C92.45,329.8,89.78,326.76,84.74,326.76z"/>
<linearGradient id="SVGID_2_" gradientUnits="userSpaceOnUse" x1="95.4004" y1="344.1216" x2="111.0045" y2="344.1216">
	<stop  offset="0" style="stop-color:#000000"/>
	<stop  offset="0.5027" style="stop-color:#000000"/>
	<stop  offset="1" style="stop-color:#000000"/>
</linearGradient>
<path class="st1" d="M105.96,353.02c0,2.38-1,3.23-2.66,3.23c-1.67,0-2.66-0.86-2.66-3.23v-25.78H95.4v25.4
	c0,5.33,2.66,8.37,7.8,8.37c5.14,0,7.8-3.04,7.8-8.37v-25.4h-5.04V353.02z"/>
<linearGradient id="SVGID_3_" gradientUnits="userSpaceOnUse" x1="113.8161" y1="343.8836" x2="129.4202" y2="343.8836">
	<stop  offset="0" style="stop-color:#000000"/>
	<stop  offset="0.5027" style="stop-color:#000000"/>
	<stop  offset="1" style="stop-color:#000000"/>
</linearGradient>
<path class="st2" d="M123.66,341.89c-3.43-3-4.52-4.76-4.52-7.18c0-2.28,0.95-3.19,2.62-3.19c1.67,0,2.62,0.9,2.62,3.28v1.71h4.95
	v-1.38c0-5.33-2.52-8.37-7.61-8.37c-5.09,0-7.8,3.04-7.8,8.28c0,3.81,1.43,6.52,5.8,10.37c3.43,3,4.47,4.76,4.47,7.52
	c0,2.47-1.05,3.33-2.71,3.33c-1.67,0-2.71-0.86-2.71-3.23v-2.28h-4.95v1.9c0,5.33,2.57,8.37,7.71,8.37c5.14,0,7.9-3.04,7.9-8.47
	C129.42,348.4,128.04,345.74,123.66,341.89z"/>
<linearGradient id="SVGID_4_" gradientUnits="userSpaceOnUse" x1="131.0395" y1="343.8836" x2="147.2151" y2="343.8836">
	<stop  offset="0" style="stop-color:#000000"/>
	<stop  offset="0.5027" style="stop-color:#000000"/>
	<stop  offset="1" style="stop-color:#000000"/>
</linearGradient>
<polygon class="st3" points="131.04,331.99 136.51,331.99 136.51,360.53 141.74,360.53 141.74,331.99 147.22,331.99 147.22,327.23 
	131.04,327.23 "/>
<linearGradient id="SVGID_5_" gradientUnits="userSpaceOnUse" x1="149.17" y1="343.8836" x2="165.0592" y2="343.8836">
	<stop  offset="0" style="stop-color:#000000"/>
	<stop  offset="0.5027" style="stop-color:#000000"/>
	<stop  offset="1" style="stop-color:#000000"/>
</linearGradient>
<path class="st4" d="M157.11,326.76c-5.14,0-7.94,3.04-7.94,8.37v17.51c0,5.33,2.81,8.37,7.94,8.37c5.14,0,7.94-3.04,7.94-8.37
	v-17.51C165.06,329.8,162.25,326.76,157.11,326.76z M159.83,352.97c0,2.38-1.05,3.28-2.71,3.28s-2.71-0.9-2.71-3.28V334.8
	c0-2.38,1.05-3.28,2.71-3.28s2.71,0.9,2.71,3.28V352.97z"/>
<linearGradient id="SVGID_6_" gradientUnits="userSpaceOnUse" x1="168.5828" y1="343.8836" x2="190.2764" y2="343.8836">
	<stop  offset="0" style="stop-color:#000000"/>
	<stop  offset="0.5027" style="stop-color:#000000"/>
	<stop  offset="1" style="stop-color:#000000"/>
</linearGradient>
<polygon class="st5" points="179.48,351.07 179.38,351.07 176.05,327.23 168.58,327.23 168.58,360.53 173.15,360.53 173.15,335.32 
	173.25,335.32 177.05,360.53 181.43,360.53 185.23,335.32 185.33,335.32 185.33,360.53 190.28,360.53 190.28,327.23 182.81,327.23 
	"/>
<linearGradient id="SVGID_7_" gradientUnits="userSpaceOnUse" x1="201.7951" y1="343.8836" x2="219.0171" y2="343.8836">
	<stop  offset="0" style="stop-color:#000000"/>
	<stop  offset="0.5027" style="stop-color:#000000"/>
	<stop  offset="1" style="stop-color:#000000"/>
</linearGradient>
<polygon class="st6" points="218.92,327.23 213.69,327.23 207.03,341.27 207.03,327.23 201.8,327.23 201.8,360.53 207.03,360.53 
	207.03,349.93 209.12,345.69 213.55,360.53 219.02,360.53 212.69,339.46 "/>
<linearGradient id="SVGID_8_" gradientUnits="userSpaceOnUse" x1="221.4944" y1="343.8836" x2="235.7657" y2="343.8836">
	<stop  offset="0" style="stop-color:#000000"/>
	<stop  offset="0.5027" style="stop-color:#000000"/>
	<stop  offset="1" style="stop-color:#000000"/>
</linearGradient>
<polygon class="st7" points="221.49,360.53 235.77,360.53 235.77,355.78 226.73,355.78 226.73,345.55 233.91,345.55 233.91,340.79 
	226.73,340.79 226.73,331.99 235.77,331.99 235.77,327.23 221.49,327.23 "/>
<linearGradient id="SVGID_9_" gradientUnits="userSpaceOnUse" x1="237.385" y1="343.8836" x2="253.5607" y2="343.8836">
	<stop  offset="0" style="stop-color:#000000"/>
	<stop  offset="0.5027" style="stop-color:#000000"/>
	<stop  offset="1" style="stop-color:#000000"/>
</linearGradient>
<polygon class="st8" points="237.38,331.99 242.86,331.99 242.86,360.53 248.09,360.53 248.09,331.99 253.56,331.99 253.56,327.23 
	237.38,327.23 "/>
<linearGradient id="SVGID_10_" gradientUnits="userSpaceOnUse" x1="255.5155" y1="343.8836" x2="271.4048" y2="343.8836">
	<stop  offset="0" style="stop-color:#000000"/>
	<stop  offset="0.5027" style="stop-color:#000000"/>
	<stop  offset="1" style="stop-color:#000000"/>
</linearGradient>
<path class="st9" d="M263.46,326.76c-5.14,0-7.94,3.04-7.94,8.37v17.51c0,5.33,2.81,8.37,7.94,8.37c5.14,0,7.94-3.04,7.94-8.37
	v-17.51C271.4,329.8,268.6,326.76,263.46,326.76z M266.17,352.97c0,2.38-1.05,3.28-2.71,3.28s-2.71-0.9-2.71-3.28V334.8
	c0-2.38,1.05-3.28,2.71-3.28s2.71,0.9,2.71,3.28V352.97z"/>
<linearGradient id="SVGID_11_" gradientUnits="userSpaceOnUse" x1="402.5175" y1="343.8836" x2="418.3111" y2="343.8836">
	<stop  offset="0" style="stop-color:#000000"/>
	<stop  offset="0.5027" style="stop-color:#000000"/>
	<stop  offset="1" style="stop-color:#000000"/>
</linearGradient>
<path class="st10" d="M410.51,327.23h-7.99v33.3h7.99c5.23,0,7.8-2.9,7.8-8.23v-16.84C418.31,330.13,415.74,327.23,410.51,327.23z
	 M413.08,352.54c0,2.38-1,3.23-2.66,3.23h-2.66v-23.79h2.66c1.67,0,2.66,0.86,2.66,3.23V352.54z"/>
<linearGradient id="SVGID_12_" gradientUnits="userSpaceOnUse" x1="421.8347" y1="343.8836" x2="436.106" y2="343.8836">
	<stop  offset="0" style="stop-color:#000000"/>
	<stop  offset="0.5027" style="stop-color:#000000"/>
	<stop  offset="1" style="stop-color:#000000"/>
</linearGradient>
<polygon class="st11" points="421.83,360.53 436.11,360.53 436.11,355.78 427.07,355.78 427.07,345.55 434.25,345.55 434.25,340.79 
	427.07,340.79 427.07,331.99 436.11,331.99 436.11,327.23 421.83,327.23 "/>
<linearGradient id="SVGID_13_" gradientUnits="userSpaceOnUse" x1="439.1072" y1="343.8836" x2="452.9516" y2="343.8836">
	<stop  offset="0" style="stop-color:#000000"/>
	<stop  offset="0.5027" style="stop-color:#000000"/>
	<stop  offset="1" style="stop-color:#000000"/>
</linearGradient>
<polygon class="st12" points="444.34,327.23 439.11,327.23 439.11,360.53 452.95,360.53 452.95,355.78 444.34,355.78 "/>
<linearGradient id="SVGID_14_" gradientUnits="userSpaceOnUse" x1="455.4753" y1="343.8836" x2="460.708" y2="343.8836">
	<stop  offset="0" style="stop-color:#000000"/>
	<stop  offset="0.5027" style="stop-color:#000000"/>
	<stop  offset="1" style="stop-color:#000000"/>
</linearGradient>
<rect x="455.48" y="327.23" class="st13" width="5.23" height="33.3"/>
<linearGradient id="SVGID_15_" gradientUnits="userSpaceOnUse" x1="463.2318" y1="343.8836" x2="480.2627" y2="343.8836">
	<stop  offset="0" style="stop-color:#000000"/>
	<stop  offset="0.5027" style="stop-color:#000000"/>
	<stop  offset="1" style="stop-color:#000000"/>
</linearGradient>
<polygon class="st14" points="472.03,353.07 471.94,353.07 468.51,327.23 463.23,327.23 468.27,360.53 475.22,360.53 480.26,327.23 
	475.46,327.23 "/>
<linearGradient id="SVGID_16_" gradientUnits="userSpaceOnUse" x1="482.7863" y1="343.8836" x2="497.0577" y2="343.8836">
	<stop  offset="0" style="stop-color:#000000"/>
	<stop  offset="0.5027" style="stop-color:#000000"/>
	<stop  offset="1" style="stop-color:#000000"/>
</linearGradient>
<polygon class="st15" points="482.79,360.53 497.06,360.53 497.06,355.78 488.02,355.78 488.02,345.55 495.2,345.55 495.2,340.79 
	488.02,340.79 488.02,331.99 497.06,331.99 497.06,327.23 482.79,327.23 "/>
<linearGradient id="SVGID_17_" gradientUnits="userSpaceOnUse" x1="500.0589" y1="343.8836" x2="516.1854" y2="343.8836">
	<stop  offset="0" style="stop-color:#000000"/>
	<stop  offset="0.5027" style="stop-color:#000000"/>
	<stop  offset="1" style="stop-color:#000000"/>
</linearGradient>
<path class="st16" d="M515.62,350.64c0-3.76-0.86-6.23-3.47-7.04v-0.09c2.33-0.95,3.43-3.14,3.43-6.57v-2.05
	c0-5.14-2.33-7.66-7.75-7.66h-7.75v33.3h5.23v-14.27h1.81c2.38,0,3.28,1,3.28,4.09v6.09c0,2.71,0.19,3.23,0.47,4.09h5.33
	c-0.52-1.24-0.57-2.43-0.57-4.04V350.64z M510.33,337.98c0,2.66-1.19,3.52-3.14,3.52h-1.9v-9.51h2.38c1.86,0,2.66,1.05,2.66,3.43
	V337.98z"/>
<linearGradient id="SVGID_18_" gradientUnits="userSpaceOnUse" x1="519.2343" y1="343.8836" x2="533.5056" y2="343.8836">
	<stop  offset="0" style="stop-color:#000000"/>
	<stop  offset="0.5027" style="stop-color:#000000"/>
	<stop  offset="1" style="stop-color:#000000"/>
</linearGradient>
<polygon class="st17" points="519.23,360.53 533.51,360.53 533.51,355.78 524.47,355.78 524.47,345.55 531.65,345.55 531.65,340.79 
	524.47,340.79 524.47,331.99 533.51,331.99 533.51,327.23 519.23,327.23 "/>
<linearGradient id="SVGID_19_" gradientUnits="userSpaceOnUse" x1="536.5068" y1="343.8836" x2="552.3005" y2="343.8836">
	<stop  offset="0" style="stop-color:#000000"/>
	<stop  offset="0.5027" style="stop-color:#000000"/>
	<stop  offset="1" style="stop-color:#000000"/>
</linearGradient>
<path class="st18" d="M544.5,327.23h-7.99v33.3h7.99c5.23,0,7.8-2.9,7.8-8.23v-16.84C552.3,330.13,549.73,327.23,544.5,327.23z
	 M547.07,352.54c0,2.38-1,3.23-2.66,3.23h-2.66v-23.79h2.66c1.67,0,2.66,0.86,2.66,3.23V352.54z"/>
<g>
	<linearGradient id="SVGID_20_" gradientUnits="userSpaceOnUse" x1="99.3428" y1="245.4128" x2="137.368" y2="245.4128">
		<stop  offset="0" style="stop-color:#000000"/>
		<stop  offset="0.5027" style="stop-color:#000000"/>
		<stop  offset="1" style="stop-color:#000000"/>
	</linearGradient>
	<path class="st19" d="M118.58,205.33H99.34v80.17h19.24c12.6,0,18.78-6.99,18.78-19.81v-40.54
		C137.37,212.31,131.18,205.33,118.58,205.33z M124.77,266.26c0,5.73-2.4,7.79-6.41,7.79h-6.41v-57.27h6.41
		c4.01,0,6.41,2.06,6.41,7.79V266.26z"/>
	<linearGradient id="SVGID_21_" gradientUnits="userSpaceOnUse" x1="165.8436" y1="245.4128" x2="204.6703" y2="245.4128">
		<stop  offset="0" style="stop-color:#000000"/>
		<stop  offset="0.5027" style="stop-color:#000000"/>
		<stop  offset="1" style="stop-color:#000000"/>
	</linearGradient>
	<path class="st20" d="M203.3,261.68c0-9.05-2.06-15-8.36-16.95v-0.23c5.61-2.29,8.25-7.56,8.25-15.81v-4.93
		c0-12.37-5.61-18.44-18.67-18.44h-18.67v80.17h12.6v-34.36h4.35c5.73,0,7.9,2.4,7.9,9.85v14.66c0,6.53,0.46,7.79,1.15,9.85h12.83
		c-1.26-2.98-1.37-5.84-1.37-9.74V261.68z M190.58,231.21c0,6.41-2.86,8.47-7.56,8.47h-4.58v-22.91h5.73c4.47,0,6.41,2.52,6.41,8.25
		V231.21z"/>
	<linearGradient id="SVGID_22_" gradientUnits="userSpaceOnUse" x1="231.0858" y1="245.4128" x2="269.34" y2="245.4128">
		<stop  offset="0" style="stop-color:#000000"/>
		<stop  offset="0.5027" style="stop-color:#000000"/>
		<stop  offset="1" style="stop-color:#000000"/>
	</linearGradient>
	<path class="st21" d="M250.21,204.18c-12.37,0-19.13,7.33-19.13,20.16v42.15c0,12.83,6.76,20.16,19.13,20.16
		s19.13-7.33,19.13-20.16v-42.15C269.34,211.51,262.58,204.18,250.21,204.18z M256.74,267.29c0,5.73-2.52,7.9-6.53,7.9
		c-4.01,0-6.53-2.18-6.53-7.9v-43.75c0-5.73,2.52-7.9,6.53-7.9c4.01,0,6.53,2.18,6.53,7.9V267.29z"/>
	<linearGradient id="SVGID_23_" gradientUnits="userSpaceOnUse" x1="297.0152" y1="283.4509" x2="335.1537" y2="283.4509">
		<stop  offset="0" style="stop-color:#000000"/>
		<stop  offset="0.5027" style="stop-color:#000000"/>
		<stop  offset="1" style="stop-color:#000000"/>
	</linearGradient>
	<path class="st22" d="M316.37,205.33h-18.55v80.17h0.17c0,0.01,0,0.02,0,0.04h-0.15c0.08,4.08,0.05,8.17-0.05,12.26
		c-0.41,16.45-0.6,32.91-0.77,49.36c-0.04,3.49,0.5,6.98,1.73,10.37c0.56,1.55,1.18,3.09,3.1,4.05h1.12c1.05-0.85,2.31-1.6,3.1-2.57
		c1.08-1.33,1.92-2.8,2.67-4.26c4.46-8.73,6.34-17.87,7.13-27.15c0.67-7.91,0.63-15.83,0.15-23.75c-0.25-4.1-0.8-8.2-1.52-12.27
		c-0.39-2.23-1.32-4.33-3.17-6.04h-2.93c-0.01-0.01-0.02-0.02-0.03-0.04h2.05v-32.64h5.96c12.6,0,18.78-6.99,18.78-19.81v-7.9
		C335.15,212.31,328.97,205.33,316.37,205.33z M322.56,233.84c0,5.73-2.18,7.56-6.18,7.56h-5.96v-24.62h5.96
		c4.01,0,6.18,1.83,6.18,7.56V233.84z"/>
	<linearGradient id="SVGID_24_" gradientUnits="userSpaceOnUse" x1="356.3637" y1="283.8558" x2="399.3632" y2="283.8558">
		<stop  offset="0" style="stop-color:#000000"/>
		<stop  offset="0.5027" style="stop-color:#000000"/>
		<stop  offset="1" style="stop-color:#000000"/>
	</linearGradient>
	<path class="st23" d="M380.58,205.33h-18.55v73.63v6.45v21.01c-0.18,0.26-0.35,0.53-0.54,0.79c-1.34,1.83-2.53,3.78-3.63,5.76
		c-1.19,2.13-1.67,4.47-1.44,6.94c0.21,2.27,0.35,4.54,0.52,6.81c0.86,11.62,1.72,23.24,2.59,34.86c0.02,0.28,0.25,0.55,0.38,0.82
		c0.16-0.28,0.44-0.55,0.46-0.83c0.1-1.54,0.15-3.09,0.2-4.64c0.3-8.98,0.59-17.96,0.89-26.93c0.02-0.61-0.08-1.5,0.75-1.52
		c0.88-0.03,0.86,0.89,0.91,1.53c0.34,4.66,0.65,9.32,0.97,13.98c0.4,5.84,0.79,11.69,1.22,17.53c0.02,0.3,0.28,0.59,0.42,0.88
		c0.13-0.3,0.27-0.59,0.4-0.89c0.03-0.08,0.01-0.18,0.02-0.27c0.51-10.43,1.03-20.85,1.55-31.28c0.02-0.33,0.04-0.7,0.2-0.96
		c0.15-0.25,0.51-0.53,0.76-0.51c0.3,0.02,0.65,0.28,0.84,0.54c0.16,0.21,0.18,0.57,0.19,0.87c0.08,1.7,0.13,3.4,0.22,5.09
		c0.44,8.85,0.88,17.7,1.34,26.55c0.02,0.3,0.28,0.58,0.42,0.87c0.14-0.27,0.38-0.53,0.4-0.81c0.27-3.3,0.52-6.59,0.74-9.89
		c0.49-7.27,0.96-14.53,1.46-21.8c0.04-0.63,0.07-1.47,0.91-1.42c0.76,0.04,0.72,0.85,0.74,1.45c0.18,5.13,0.36,10.25,0.53,15.38
		c0.18,5.4,0.36,10.8,0.56,16.2c0.01,0.31,0.25,0.6,0.38,0.91c0.16-0.28,0.44-0.55,0.46-0.85c0.46-5.93,0.88-11.86,1.32-17.79
		c0.57-7.69,1.08-15.38,1.74-23.06c0.26-3.02-0.22-5.81-1.73-8.4c-1.04-1.78-2.15-3.52-3.35-5.19c-0.46-0.63-0.88-1.28-1.27-1.94
		V285.5h0.06v-32.64h5.96c12.6,0,18.78-6.99,18.78-19.81v-7.9C399.36,212.31,393.18,205.33,380.58,205.33z M386.77,233.84
		c0,5.73-2.18,7.56-6.18,7.56h-5.96v-24.62h5.96c4.01,0,6.18,1.83,6.18,7.56V233.84z"/>
	<linearGradient id="SVGID_25_" gradientUnits="userSpaceOnUse" x1="427.2354" y1="245.4128" x2="439.8334" y2="245.4128">
		<stop  offset="0" style="stop-color:#000000"/>
		<stop  offset="0.5027" style="stop-color:#000000"/>
		<stop  offset="1" style="stop-color:#000000"/>
	</linearGradient>
	<rect x="427.24" y="205.33" class="st24" width="12.6" height="80.17"/>
	<linearGradient id="SVGID_26_" gradientUnits="userSpaceOnUse" x1="465.9034" y1="245.4128" x2="504.845" y2="245.4128">
		<stop  offset="0" style="stop-color:#000000"/>
		<stop  offset="0.5027" style="stop-color:#000000"/>
		<stop  offset="1" style="stop-color:#000000"/>
	</linearGradient>
	<polygon class="st25" points="465.9,205.33 465.9,216.78 479.07,216.78 479.07,285.5 491.67,285.5 491.67,216.78 504.85,216.78 
		504.85,205.33 	"/>
</g>
<polygon class="st26" points="516,174.56 516,183.56 550.33,183.56 550.33,237.78 550.33,262.93 550.33,305.42 537.67,305.42 
	517,305.42 391.66,305.42 391.66,314.43 517,314.43 537.67,314.43 559.33,314.43 559.33,262.93 559.33,237.78 559.33,174.56 "/>
<path class="st26" d="M282.28,180.69c0.02,0,0.08-0.01,0.23-0.02c0-0.03-0.01-0.05-0.01-0.08c-0.06,0.03-0.12,0.06-0.19,0.09
	C282.3,180.69,282.28,180.69,282.28,180.69z"/>
<g>
	<path class="st26" d="M442.05,182c0.13,0.55,0.78,1.23,1.32,1.38c2.35,0.66,4.75,1.14,7.14,1.69c0.03-0.12,0.06-0.25,0.09-0.37
		c1.03-0.09,2.07-0.12,3.09-0.29c2.79-0.44,3.26-0.71,3.54-3.54c0.44-4.47,0.86-8.9,3.06-12.94c0.08-0.15,0.11-0.33,0.15-0.49
		c0.42-1.98-0.35-3.73-2.15-4.62c-1.88-0.94-3.86-1.22-5.81-0.26c-1.67,0.81-3.3,0.81-5,0.2c-0.92-0.33-1.85-0.64-2.8-0.83
		c-2.43-0.49-4.34,0.55-4.81,2.99c-0.37,1.94-0.47,4.03-0.17,5.97C440.27,174.63,441.17,178.32,442.05,182z M451.49,164.92
		c0.22-0.05,0.45-0.1,0.67-0.15c0.39,1.17,1.04,2.32,1.11,3.51c0.09,1.57-0.2,3.18-0.44,4.76c-0.33,2.18-0.76,4.34-1.14,6.51
		c-0.15,0-0.3,0-0.46-0.01c0.17-2.69,0.1-5.43,0.57-8.06C452.2,169.24,453.16,167.11,451.49,164.92z M446.49,162.78
		c0,4.18,0,7.88,0,11.57c-0.16,0-0.31,0.01-0.47,0.01C446.1,170.66,443.88,166.86,446.49,162.78z"/>
	<path class="st26" d="M434.16,183.65c-1.88,1.78-1.96,3.29,0.26,4.57c2.71,1.56,5.58,3.04,8.57,3.88
		c4.42,1.23,8.65-0.17,12.59-2.26c5.48-2.92,9.05-8.02,13.42-12.2c-0.95,0.54-1.89,1.08-2.84,1.63c-4.12,2.38-8.14,4.88-12.88,6.04
		c-3.9,0.96-7.38,0.49-10.71-1.64c-1.11-0.71-2.21-1.46-3.39-2.04c-2.22-1.1-3.04-0.81-4.34,1.27
		C434.67,183.17,434.41,183.41,434.16,183.65z M436.67,184.06c1.6,0.61,3.15,1.33,4.7,2.05c1.49,0.68,2.95,1.41,4.66,2.22
		c-4.36-0.01-7.29-3.29-11.14-4.3C435.49,184.03,436.15,183.86,436.67,184.06z"/>
	<path class="st26" d="M445.93,161.2c-0.08,0.02-0.13,0.16-0.19,0.25c4.04,1.44,4.04,1.44,8.44-0.32c-3.54-0.14-3.96-3.11-4.97-5.72
		c-1.11,0.18-2.19,0.36-3.61,0.59c0.68,0.97,1.1,1.57,1.53,2.16C448.66,160.24,448.49,160.68,445.93,161.2z"/>
</g>
<path class="st26" d="M429.89,179.39c2.49,1.66,2.51,1.9,1.75,4.73c-0.08,0.31-0.01,0.66-0.01,1.07c1.35-1.57,2.63-3.08,3.97-4.64
	c-1.28-0.23-2.65-0.15-3.64-0.73c-1.02-0.59-1.67-1.81-2.51-2.79C428.54,178.11,428.87,178.71,429.89,179.39z"/>
<g>
	<path class="st26" d="M161.28,173.85c-3.25,4.6-6.32,9.32-9.43,14.02c-0.45,0.68-0.69,1.49-1.03,2.25c0.13,0.18,0.26,0.35,0.4,0.53
		c1.21-0.51,2.57-0.82,3.61-1.56c4.15-2.99,8.22-6.08,12.26-9.22c1.26-0.98,2.42-2.15,3.4-3.4c1.96-2.52,1.91-4.27,0.07-6.81
		c-1.93-1.07-3.81-0.75-5.45,0.52C163.7,171.24,162.29,172.42,161.28,173.85z M169.85,173.04c-1.06-0.99-1.88-1.75-2.84-2.64
		C169,170.12,169.53,171.2,169.85,173.04z"/>
	<path class="st26" d="M170.53,169.6c0.01,0.01,0.02,0.03,0.03,0.04c0.01,0.01,0.02,0.01,0.03,0.01L170.53,169.6z"/>
	<path class="st26" d="M151.19,188c2.17-3.79,4.35-7.57,6.42-11.42c0.7-1.3,1.17-2.75,1.55-4.18c0.64-2.38,0.14-4.41-2.2-5.66
		c0-0.01,0.01-0.02,0.01-0.03c-0.01,0.01-0.03,0.01-0.04,0.02c0,0,0,0,0,0c0,0,0.04,0.02,0.03,0.02c-2.56-0.04-4.32,1.23-5.12,3.57
		c-1.98,5.85-3.12,11.87-3.33,18.05c-0.02,0.65,0.35,1.31,0.67,2.44C150.08,189.56,150.72,188.83,151.19,188z"/>
	<path class="st26" d="M169.89,181.16c-1.21,0.3-2.48,0.69-3.51,1.36c-4.41,2.9-8.75,5.91-13.09,8.92c-0.47,0.33-0.8,0.87-1.45,1.62
		c1.04,0.16,1.71,0.42,2.33,0.34c6.07-0.76,11.93-2.38,17.51-4.84c2.81-1.24,3.45-2.88,2.99-5.83l0.05,0.06
		c-0.01-0.03,0-0.05-0.01-0.08c-0.01,0.01-0.03,0.01-0.04,0.02C173.5,181.01,171.78,180.69,169.89,181.16z"/>
	<path class="st26" d="M176.86,163.78c1.1-1.04,1.25-2.01,0.44-3.25c-1.76,1.95-3.48,3.85-5.19,5.75c0.6-1.36,1.15-2.73,1.8-4.06
		c0.47-0.97,0.39-1.6-1.02-1.89c-0.63,2.4-1.25,4.79-1.88,7.18c-0.14,0.68-0.27,1.37-0.41,2.05c0.5-0.26,1.08-0.45,1.47-0.83
		C173.7,167.11,175.19,165.36,176.86,163.78z"/>
	<path class="st26" d="M170.53,169.6l0.06,0.06c0.01-0.03,0.01-0.06,0.02-0.1C170.58,169.58,170.55,169.59,170.53,169.6z"/>
	<path class="st26" d="M179.86,165.83c-0.61-0.05-1.29-0.31-1.82-0.12c-1.29,0.47-2.59,1.02-3.73,1.77c-1.07,0.7-1.94,1.7-2.9,2.57
		c0.19,0.21,0.37,0.43,0.56,0.64c2.64-1.43,5.28-2.86,7.93-4.29C179.89,166.22,179.87,166.03,179.86,165.83z"/>
	<path class="st26" d="M179.86,177.48c0.29-0.35,0.24-0.99,0.35-1.49c-0.17-0.04-0.35-0.09-0.52-0.13
		c-1.31,1.54-2.62,3.07-4.14,4.85c0.54-0.03,0.75-0.05,0.97-0.06c-0.46,0.8-2.01,0.69-1.78,2.07c2.39-0.98,4.78-1.99,7.19-2.92
		c1.15-0.45,1.32-1.18,1-2.3c-2,0.98-3.88,1.9-5.77,2.82C178.06,179.38,179.03,178.49,179.86,177.48z"/>
	<path class="st26" d="M156.61,158.44c-0.16,0.08-0.32,0.17-0.48,0.25c0,2.54,0,5.09,0,7.79c0.4-0.16,0.68-0.27,0.96-0.38
		c0.13-2.07,0.31-4.15,0.34-6.22C157.44,159.41,156.9,158.92,156.61,158.44z"/>
	<path class="st26" d="M175.09,184.01c2.93-0.3,5.45-0.55,8.04-0.81C182.33,181.25,177.01,181.71,175.09,184.01z"/>
	<path class="st26" d="M176.33,165.55c1.73-0.95,3.46-1.9,5.32-2.92c-0.53-0.49-0.85-0.8-1.36-1.28c-1.47,1.36-2.82,2.62-4.18,3.88
		C176.19,165.33,176.26,165.44,176.33,165.55z"/>
	<path class="st26" d="M163.84,161.38c-0.1-0.19-0.2-0.37-0.3-0.56c-0.47,0.15-1.1,0.17-1.39,0.49c-0.99,1.09-1.87,2.29-2.78,3.45
		c0.82-2.16,1.64-4.32,2.47-6.52c-1.36-0.25-1.94,0.38-2.33,1.51c-0.74,2.14-1.59,4.23-2.39,6.35c-0.01,0-0.01,0-0.02,0.01
		c0,0.01,0,0.03,0,0.04c0,0,0.06-0.06,0.06-0.06c-0.06,0.2-0.12,0.41-0.18,0.62c0.74-0.31,1.47-0.63,2.2-0.94
		C160.73,164.3,162.28,162.84,163.84,161.38z"/>
	<path class="st26" d="M180.36,181.29c1.75-0.2,3.5-0.4,5.44-0.62c-0.28-0.57-0.48-0.99-0.72-1.49c-1.66,0.64-3.19,1.23-4.72,1.81
		C180.36,181.09,180.36,181.19,180.36,181.29z"/>
	<path class="st26" d="M159.96,156.31c-0.49-0.19-0.9-0.35-1.55-0.61c0,1.98,0,3.66,0,5.34c0.07,0.02,0.14,0.03,0.2,0.05
		C159.05,159.53,159.49,157.96,159.96,156.31z"/>
</g>
<g>
	<path class="st26" d="M346.58,180.5c-2.26-0.21-3.2-1.01-3.35-3.26c-0.09-1.29,0.21-2.61,0.33-3.91c0.01-0.15-0.02-0.3-0.05-0.61
		c-0.45,0.34-0.78,0.59-1.07,0.81c-2-6.78-3.97-13.49-5.95-20.21c-1.04,5.05,1.19,9.63,2.07,14.41c-2.17-5.65-3.94-11.43-7.14-16.63
		c1.49,4.86,2.98,9.71,4.47,14.57c-2.53-3.64-4.65-7.49-8.22-10.22c4.05,5.92,7.75,12,10.2,19.09c-0.68-0.25-0.92-0.33-1.41-0.51
		c0.46,0.9,0.8,1.55,1.14,2.2c0.34,0.66,0.69,1.33,1,2c1.35,2.89,1.45,3.28-1.06,5.15c-2.28,1.69-3.57,4.14-2.82,7.11
		c0.73,2.85,2.96,4.18,5.66,4.64c1.44,0.25,2.1,0.76,1.68,2.46c0.37-0.42,0.57-0.65,0.85-0.97c0.18,0.47,0.31,0.8,0.55,1.41
		c0.06-0.82,0.1-1.34,0.14-1.86c0.08,0,0.17-0.01,0.25-0.01c0.17,0.54,0.33,1.09,0.5,1.63c0.96-0.38-0.55-3.68,2.22-1.81
		c0.07-0.31,0.13-0.63,0.18-0.83c0.76,0.31,1.48,0.59,2.2,0.88c0.05-0.11,0.09-0.23,0.14-0.34c-0.45-0.32-0.89-0.63-1.58-1.12
		c0.79-0.63,1.42-1.17,2.08-1.67c2.78-2.12,4.04-5.12,3.28-7.77C352.16,182.65,349.61,180.78,346.58,180.5z"/>
	<path class="st26" d="M370.75,167.74c-2.56-1.47-2.92-2.43-1.2-4.88c0.29-0.42,0.59-0.84,0.93-1.33c-1.67-0.13-2.67,0.77-3.56,1.87
		c0.17-0.48,0.24-1.03,0.54-1.42c1.09-1.43,1.25-3.17,0.34-4.8c-0.67-1.2-1.59-1.34-2.14-0.11c-0.67,1.47-0.93,3.13-1.37,4.71
		c-0.3-0.24-0.59-0.47-1.03-0.82c0.03,0.6,0,1.05,0.07,1.48c0.3,1.69-0.6,2.61-2.05,3.12c-0.59,0.21-1.24,0.25-1.86,0.37
		c-3.21,0.58-6.12,1.84-8.06,4.54c-2.86,4-2.01,8.8,2.02,12.48c2.76,2.52,2.76,2.52,1.12,5.6c0.14,0.14,0.27,0.28,0.41,0.41
		c0.5-0.76,1-1.52,1.5-2.27c0.11,0.09,0.22,0.17,0.33,0.26c-0.36,1.3-0.72,2.59-1.08,3.89c0.1,0.03,0.2,0.06,0.3,0.08
		c0.56-1.31,1.12-2.62,1.68-3.93c0.16,0.05,0.32,0.1,0.48,0.15c-0.2,0.96-0.41,1.92-0.61,2.88c0.11,0.04,0.21,0.08,0.32,0.13
		c0.58-0.9,1.16-1.79,1.82-2.81c3.52,0.05,0.84,2.86,1.76,4.1c0.35-1.24,0.71-2.49,1.07-3.74c0.15-0.01,0.31-0.02,0.46-0.02
		c0.33,1.67,0.97,3,2.84,3.03c-0.58-0.82-1.16-1.63-1.99-2.81c1.36-0.34,2.32-0.57,3.27-0.83c1.65-0.45,3.4-0.72,4.93-1.44
		c5.97-2.84,7.5-8.99,3.43-14.18C374.19,169.93,372.45,168.72,370.75,167.74z M372.06,184.25c-1.93,1.11-4.24,1.57-5.5,2.02
		c-5.9-0.41-10.08-2-12.26-6.74c-2-4.34-0.33-8.88,3.89-11.16c5.17-2.79,12.08-1.5,15.89,2.97
		C377.67,175.52,376.84,181.49,372.06,184.25z"/>
	<path class="st26" d="M359.89,177.83c0.93,1.89,3.21,2.99,5.55,2.66c2.35-0.33,3.97-1.81,4.38-4c0.41-2.19-0.3-3.82-2.3-4.91
		c1.46,1.82,2.13,3.62,0.93,5.66c-0.84,1.43-1.78,2.01-3.11,1.94c2.82-1.96,3.48-4.43,1.62-7.07c0.82,2.54,0.54,4.59-1.58,5.87
		c-1.43,0.86-2.89,0.51-4.29-0.6c0.62,0.65,1.23,1.3,1.85,1.95c-0.05,0.07-0.1,0.15-0.14,0.22
		C361.83,178.98,360.85,178.4,359.89,177.83z"/>
	<path class="st26" d="M372.75,173.61c0.07,1.35,0.49,2.76,0.24,4.04c-0.59,3.02-3.48,5.37-6.88,5.51
		c-2.01,0.08-4.05-0.42-6.08-0.66c1.08,0.43,2.13,1.05,3.26,1.27c5.05,0.96,9.92-2.03,10.44-6.49c0.16-1.35-0.32-2.78-0.51-4.18
		c0.2,0.26,0.47,0.5,0.58,0.79c1.83,4.71-1.09,9.32-6.45,10.4c-2.85,0.57-5.43-0.26-8.04-1.1c3.33,2.75,9.81,2.42,13.17-0.67
		c2.07-1.9,2.94-4.29,2.35-6.98c-0.24-1.1-1.26-2.03-1.92-3.04C372.85,172.87,372.73,173.25,372.75,173.61z"/>
	<path class="st26" d="M370.03,171.34c-1.78-3.19-7.73-3.94-11.23-1.72c-3.07,1.96-3.86,6.62-2.02,8.42
		c-0.79-3.77-0.32-5.85,2.12-7.5C362.73,167.95,366.49,168.21,370.03,171.34z"/>
	<path class="st26" d="M368.83,180.1c-2.61,2.08-5.39,1.7-8.24,0.5c2.8,2.12,6.39,2.04,8.91-0.1c2.42-2.06,2.69-4.77,0.71-8.49
		C371.48,175.05,371.66,177.84,368.83,180.1z"/>
	<path class="st26" d="M365.03,177.37c1.75-0.9,2.2-2.85,1.08-4.59c-0.02,3.7-1.37,4.71-4.18,3.13
		C362.68,177.57,363.71,178.05,365.03,177.37z"/>
</g>
<polygon class="st26" points="81.49,305.42 70.99,305.42 70.99,262.93 70.99,237.78 70.99,183.56 93.33,183.56 93.33,174.56 
	61.98,174.56 61.98,237.78 61.98,262.93 61.98,314.43 81.49,314.43 101,314.43 284.33,314.43 284.33,305.42 101,305.42 "/>
<g>
	<path class="st26" d="M237.24,174.66c-1.35-5.24-4.62-8.74-9.97-10.09c-4.32-1.09-8.69-1.04-13.06-0.39
		c-2.09,0.31-4.15,0.35-6.25,0.06c-2.21-0.31-4.43-0.47-6.65-0.69c0,0.03-0.01,0.05-0.01,0.08c-0.72,0.04-1.45,0.05-2.16,0.13
		c-3.04,0.32-5.36,3.1-4.99,6.13c0.2,1.67,0.59,3.32,1,4.95c0.41,1.63,1.45,2.81,2.9,3.66c1.2,0.7,2.51,1.1,3.87,1.35
		c2.56,0.46,4.76,1.57,6.53,3.49c0.49,0.53,1,1.05,1.48,1.58c1.61,1.79,3.34,3.44,5.38,4.73c2.19,1.38,4.54,2.32,7.15,2.4
		c6.24,0.19,11.85-3.59,14.05-9.45C237.47,180.03,237.92,177.33,237.24,174.66z M232.75,180.43c-2.2,3.07-5.24,4.72-8.96,5.15
		c-3.69,0.42-6.82-0.95-9.68-3.12c-1.55-1.17-2.83-2.62-4.11-4.05c-2.23-2.49-4.84-4.32-8.22-4.87c-1.36-0.22-2.68-0.61-3.82-1.43
		c-1.08-0.78-1.76-1.81-1.56-3.19c0.2-1.38,1.01-2.38,2.35-2.76c0.9-0.26,1.87-0.25,2.72-0.35c1.88,0.18,3.67,0.34,5.45,0.52
		c3.43,0.36,6.84,0.31,10.26-0.22c4.38-0.68,8.64-0.06,12.62,1.93C234.94,170.6,235.55,176.52,232.75,180.43z"/>
	<path class="st26" d="M228.57,169.01c-2.98-1.28-6.12-1.73-9.36-1.59c-3.22,0.14-6.44,0.28-9.67,0.37
		c-0.91,0.03-1.83-0.08-2.74-0.21c-1.85-0.25-3.69-0.54-5.54-0.82c-0.01,0.03-0.01,0.06-0.02,0.09c-0.44,0.02-0.89-0.03-1.3,0.08
		c-0.6,0.15-1.23,0.34-1.75,0.66c-0.92,0.57-1.11,1.51-0.63,2.48c0.35,0.7,0.97,1.1,1.65,1.41c1.27,0.58,2.6,1.01,3.98,1.12
		c2.2,0.17,4.12,0.93,5.79,2.37c2.24,1.94,4.46,3.91,6.46,6.11c0.46,0.51,0.96,1.03,1.53,1.38c4.9,2.98,11.23,1.87,14.64-2.99
		c1.1-1.58,1.64-3.33,1.3-5.26C232.46,171.68,230.87,170,228.57,169.01z M226.31,180.07c-1.49,1.49-4.33,1.49-5.84,0.01
		c-1.22-1.2-0.95-3.03,0.57-3.94c0.73-0.44,1.51-0.66,2.03-0.64c1.46,0.02,2.47,0.34,3.27,1.16
		C227.34,177.66,227.31,179.07,226.31,180.07z"/>
</g>
<g>
	<path class="st26" d="M413.73,182.91c1.01-1.02,1.06-2.2,0.14-3.33c-2.29-2.81-3.72-6-4.46-9.55c-1.42-6.83-5.49-11.48-12.18-13.47
		c-6.98-2.08-13.22,2.64-13.29,9.73c0.09,0.74,0.13,1.49,0.27,2.22c1.18,6.17,6.95,11.88,13.27,12.96
		c3.79,0.65,7.11,2.17,10.05,4.61c1.05,0.87,2.19,0.82,3.17-0.14C411.72,184.94,412.72,183.93,413.73,182.91z M400.2,165.79
		c-1.91-1.01-3.6-2.32-5.06-3.92c-0.4-0.44-0.77-0.97-0.49-1.59c0.3-0.66,0.99-0.6,1.43-0.67c2.61,0.01,5.42,2.21,6.02,4.6
		c0.15,0.58,0.28,1.2-0.24,1.64C401.33,166.3,400.72,166.06,400.2,165.79z"/>
	<path class="st26" d="M415.32,194.33c1.79-0.31,2.67-1.33,3.16-3.7c2.23-0.4,3.35-1.32,3.68-3.03c0.29-1.49-0.38-3-1.68-3.79
		c-1.44-0.87-2.96-0.68-4.77,0.74c-0.26-0.37-0.52-0.74-0.74-1.04c-1.25,1.23-2.41,2.39-3.59,3.56c0.29,0.31,0.59,0.64,0.89,0.96
		c-1.24,1.62-1.45,3.17-0.64,4.54C412.42,193.88,413.88,194.58,415.32,194.33z"/>
</g>
<path class="st26" d="M320.07,172.77c-0.52-3.99-2.03-7.52-4.85-10.44c-5-5.18-12.61-5.45-17.8-0.45
	c-4.69,4.52-6.19,10.17-5.18,16.5c0.61,3.85,2.24,7.36,4.22,10.7c0.91,1.52,1.92,2.97,3.1,4.3c0.64,0.71,1.44,0.95,2.36,0.66
	c0.93-0.29,1.48-0.94,1.61-1.91c0.07-0.5-0.08-0.99-0.22-1.47c-0.26-0.9-0.76-1.7-1.13-2.55c-0.94-2.15-0.81-4.26,0.23-6.33
	c0.59-1.16,1.49-2.03,2.79-2.35c1.79-0.44,3.6,0.41,4.53,2.22c1.19,2.31,1.13,4.67,0.06,7.02c-0.29,0.64-0.64,1.26-0.86,1.94
	c-0.21,0.65-0.39,1.3-0.21,1.98c0.24,0.86,0.83,1.4,1.69,1.61c0.92,0.23,1.69-0.07,2.29-0.77c2.45-2.86,4.25-6.11,5.63-9.6
	c1.1-2.78,1.87-5.64,1.89-8.66C320.2,174.38,320.17,173.57,320.07,172.77z M315.35,164.72c0.98,1.15,1.7,2.43,2.16,3.86
	c0.19,0.22,0.25,0.49,0.31,0.76c0.51,1.32,0.75,2.71,0.9,4.11c0.04,0.41,0.05,0.83,0.07,1.24c-1.72,0.32-3.45,0.38-5.19,0.3
	c-1.35-0.06-2.69-0.24-4.02-0.47c-0.26-0.05-0.35-0.15-0.33-0.41c0.05-0.62-0.01-1.22-0.33-1.77c-0.13-0.22-0.07-0.35,0.14-0.46
	c2.2-1.18,4.5-2.05,6.98-2.41c0.59-0.09,1.18-0.15,1.78-0.13c-0.05-0.27-0.12-0.54-0.31-0.76c-1.19,0.17-2.39,0.29-3.56,0.59
	c-1.83,0.48-3.57,1.18-5.22,2.1c-0.32,0.18-0.54,0.17-0.81-0.06c-0.35-0.29-0.77-0.47-1.22-0.54c-0.22-0.04-0.29-0.14-0.29-0.35
	c0.01-0.95,0.01-1.9,0-2.84c-0.01-0.34,0.2-0.38,0.45-0.43c2.02-0.36,4.03-0.79,5.99-1.44C313.7,165.35,314.52,165.03,315.35,164.72
	c-0.06-0.21-0.18-0.36-0.33-0.5C315.17,164.36,315.29,164.52,315.35,164.72z M311.09,161c1.47,0.77,2.75,1.78,3.78,3.09
	c-1.1,0.58-2.3,0.9-3.48,1.25c-1.5,0.43-3.02,0.74-4.55,1.03c-0.35,0.07-0.42-0.03-0.41-0.35c0.01-0.83,0.02-1.67,0-2.51
	c-0.01-0.36,0.11-0.5,0.45-0.59c1.4-0.38,2.73-0.93,3.96-1.71C310.93,161.15,311,161.07,311.09,161c-0.07-0.04-0.13-0.08-0.2-0.12
	C310.96,160.92,311.02,160.96,311.09,161z M310.12,160.53c0.05,0.02,0.09,0.09,0.13,0.13c-0.1,0.24-0.34,0.28-0.53,0.38
	c-0.92,0.5-1.9,0.85-2.9,1.17c-0.29,0.09-0.41,0.03-0.41-0.3c0.02-0.72,0.01-1.45,0.01-2.17c-0.12-0.02-0.24-0.03-0.36-0.03
	c0.12,0,0.24,0.01,0.36,0.03C307.72,159.74,308.94,160.04,310.12,160.53z M306.07,159.72c-0.06,0-0.12,0-0.18,0.01
	C305.95,159.73,306.01,159.72,306.07,159.72z M301.91,160.63c0.77-0.47,1.64-0.62,2.5-0.78c0.42-0.08,0.86-0.16,1.29-0.1
	c0,0.72,0.01,1.44,0.01,2.16c0,0.2,0.01,0.41-0.3,0.31c-1.19-0.38-2.36-0.81-3.42-1.47C301.95,160.72,301.93,160.67,301.91,160.63
	c-0.22,0.01-0.4,0.12-0.58,0.21C301.51,160.75,301.69,160.64,301.91,160.63z M297.35,164.05c0.43-0.76,1.13-1.26,1.78-1.8
	c0.61-0.52,1.3-0.94,2.01-1.32c0.3,0.43,0.79,0.59,1.22,0.82c0.93,0.51,1.93,0.88,2.96,1.15c0.31,0.08,0.42,0.21,0.41,0.53
	c-0.02,0.87-0.01,1.74-0.01,2.61c0,0.2,0.03,0.39-0.3,0.33c-2.66-0.48-5.29-1.1-7.8-2.13C297.51,164.19,297.4,164.17,297.35,164.05
	c-0.2,0.1-0.32,0.25-0.43,0.43C297.03,164.3,297.15,164.14,297.35,164.05z M296.81,164.65c2.7,1.21,5.57,1.86,8.46,2.39
	c0.33,0.06,0.46,0.15,0.45,0.51c-0.03,0.9-0.02,1.8,0,2.7c0,0.27-0.07,0.4-0.36,0.44c-0.43,0.07-0.84,0.26-1.17,0.54
	c-0.25,0.21-0.45,0.19-0.72,0.04c-2.26-1.24-4.64-2.12-7.2-2.48c-0.56-0.08-1.12-0.11-1.68-0.16v0
	C295.1,167.17,295.83,165.84,296.81,164.65z M294.52,168.75c-0.02,0.04-0.05,0.09-0.07,0.13
	C294.47,168.84,294.5,168.79,294.52,168.75z M294.33,169.35c2.89,0.03,5.56,0.9,8.13,2.17c0.01,0.01,0.03,0.01,0.04,0.02
	c0.27,0.15,0.63,0.23,0.78,0.46c0.18,0.26-0.18,0.53-0.26,0.81c-0.12,0.43-0.15,0.86-0.12,1.29c0.01,0.23-0.05,0.36-0.29,0.4
	c-3.07,0.55-6.15,0.79-9.25,0.23c0,0.08,0,0.17,0,0.25c0-0.08,0-0.17,0-0.25C293.4,172.88,293.67,171.08,294.33,169.35z
	 M301.7,190.39c0.22,0.45,0.38,0.92,0.42,1.42c0.04,0.41-0.16,0.68-0.5,0.85c-0.36,0.18-0.7,0.13-0.97-0.17
	c-1.14-1.29-2.17-2.66-2.99-4.18c-0.09-0.1-0.17-0.21-0.24-0.32c0.07,0.12,0.15,0.22,0.24,0.32c0.47-0.25,0.91-0.53,1.31-0.88
	c0.47-0.41,0.75-0.95,1.15-1.41C300.34,187.59,301.01,188.99,301.7,190.39z M311.57,192.6c-0.27,0.31-0.65,0.35-1.02,0.18
	c-0.39-0.18-0.57-0.51-0.5-0.95c0.06-0.4,0.17-0.79,0.35-1.15c0.75-1.55,1.46-3.11,1.62-4.85l0,0c0.63,1.05,1.41,1.95,2.55,2.48
	C313.76,189.87,312.73,191.28,311.57,192.6z M311.97,185.09c0,0.01,0,0.02,0,0.03C311.97,185.11,311.97,185.1,311.97,185.09z
	 M311.97,185.2c0,0.09,0,0.18,0.01,0.28C311.97,185.38,311.97,185.29,311.97,185.2z M318.28,179.38c-0.13,0.57-0.31,1.14-0.47,1.7
	c-0.09,0.26-0.17,0.52-0.26,0.78c-0.66,2.03-1.5,3.97-2.6,5.8c-0.05,0.18-0.14,0.35-0.25,0.5c0.11-0.15,0.2-0.32,0.25-0.5
	c-1.24-0.49-1.99-1.44-2.43-2.67c-0.1-0.27-0.15-0.57-0.53-0.59v0c-0.18-1.17-0.4-2.33-0.98-3.38c-0.03-0.05-0.01-0.12-0.02-0.19
	l0,0c0.19-0.01,0.34,0.09,0.5,0.16c1.95,0.8,3.94,1.28,6.06,0.87c0.09-0.26,0.17-0.52,0.26-0.78c-0.55,0.12-1.1,0.22-1.67,0.22
	c-1.85,0.02-3.54-0.53-5.18-1.33c-0.26-0.13-0.5-0.31-0.81-0.22l0,0c-0.72-0.68-1.48-1.28-2.45-1.57c-2.01-0.6-3.77-0.15-5.29,1.29
	c-0.1,0.1-0.22,0.19-0.33,0.28c-0.2,0.27-0.38,0.57-0.61,0.83c0.22-0.26,0.4-0.56,0.61-0.83c-0.23-0.05-0.43,0.04-0.64,0.14
	c-2.24,1.11-4.56,1.78-7.09,1.19c0.02,0.07,0.04,0.14,0.06,0.21c0.06,0.21,0.11,0.43,0.26,0.6c1.44,0.23,2.85,0.11,4.25-0.26
	c0.79-0.21,1.53-0.57,2.32-0.81c-0.1,0.54-0.44,0.98-0.6,1.49c-0.22,0.7-0.35,1.42-0.46,2.14v0c-0.3-0.01-0.34,0.22-0.42,0.44
	c-0.44,1.26-1.18,2.26-2.47,2.77c0,0,0,0,0,0c-0.8-1.2-1.38-2.51-1.94-3.84c-0.26-0.63-0.6-1.24-0.68-1.93
	c-0.15-0.18-0.21-0.39-0.26-0.6c-0.02-0.07-0.04-0.14-0.06-0.21c-0.58-1.83-1.01-3.68-1.01-5.61v0c0.59,0.07,1.18,0.15,1.77,0.2
	c2.53,0.22,5.03-0.01,7.52-0.48c0.32-0.06,0.51-0.01,0.71,0.3c1.32,2.07,4.11,2.07,5.45,0.01c0.2-0.3,0.38-0.34,0.71-0.28
	c1.47,0.28,2.95,0.44,4.44,0.51c1.63,0.08,3.24-0.06,4.85-0.28C318.83,176.79,318.58,178.09,318.28,179.38z M310.63,180.44
	c0.04,0.05,0.07,0.1,0.11,0.15C310.71,180.54,310.67,180.49,310.63,180.44z"/>
<g>
	<path class="st26" d="M282.01,178.83c-0.27-0.58-0.5-1.16-0.47-1.83c0.02-0.45-0.07-0.92-0.33-1.32c0.03-0.1-0.03-0.18-0.07-0.26
		c-0.34-0.72-0.84-1.3-1.51-1.73c-0.16-0.11-0.19-0.21-0.1-0.36c0.03-0.05,0.05-0.1,0.08-0.15c0.23-0.43,0.23-0.52-0.09-0.9
		c-0.41-0.5-0.89-0.94-1.34-1.39c-0.14-0.14-0.2-0.27-0.21-0.47c-0.08-1.29-0.4-1.67-1.47-1.99c-0.14-0.04-0.22-0.12-0.31-0.23
		c-0.15-0.19-0.22-0.48-0.55-0.46c-0.03,0-0.07-0.06-0.11-0.1c-0.18-0.18-0.26-0.39-0.26-0.64c0-0.4,0.02-0.79-0.04-1.19
		c-0.09-0.6-0.21-0.72-0.81-0.81c-0.3-0.05-0.34-0.08-0.2-0.36c0.13-0.24,0.03-0.34-0.18-0.43c-0.49-0.2-0.98-0.4-1.47-0.59
		c-0.14-0.05-0.24-0.12-0.32-0.25c-0.19-0.31-0.48-0.44-0.84-0.43c-0.19,0-0.38,0.01-0.57-0.03c-0.55-0.13-0.9-0.49-1.19-0.94
		c-0.25-0.38-0.4-0.82-0.58-1.23c-0.19-0.42-0.47-0.54-0.91-0.39c-0.1,0.03-0.2,0.08-0.29,0.13c-0.08,0.04-0.15,0.05-0.24,0.05
		c-0.47-0.05-0.94-0.09-1.41-0.12c-0.95-0.06-1.87-0.21-2.75-0.58c-0.26-0.11-0.52-0.2-0.81-0.23c-0.78,0.3-1.46,0.76-2.06,1.34
		c-0.62,0.6-1.04,1.32-1.14,2.2c-0.1,0.86-0.51,1.53-1.26,1.97c-0.13,0.08-0.1,0.12-0.03,0.22c0.43,0.57,0.88,1.12,1.4,1.6
		c0.36,0.33,0.67,0.7,0.96,1.1c1.03,1.4,1.97,2.87,2.84,4.38c0.12,0.24,0.2,0.51,0.39,0.71c0.5,0.51,0.88,1.11,1.19,1.74
		c0.37,0.75,0.74,1.51,1.11,2.26c0.03,0.07,0.06,0.15,0.1,0.22c0.51,1.01,1.1,1.97,1.71,2.93c0.3,0.47,0.59,0.95,0.89,1.42
		c-0.23-1.56-0.45-3.11-0.62-4.67c-0.02-0.65-0.17-1.28-0.13-1.94c0.03-0.54,0.03-1.09,0.04-1.63c0.01-0.2,0.03-0.4,0.04-0.6
		c0-0.08,0.01-0.16,0.01-0.25c0.16-1.55,0.02-3.04-0.66-4.47c-0.34-0.7-0.74-1.37-0.98-2.11c-0.31-0.95-0.49-1.93-0.71-2.9
		c-0.01-0.06-0.03-0.09,0.05-0.11c0.09,0.3,0.18,0.6,0.26,0.9c0.29,1.12,0.72,2.19,1.39,3.15c0.22,0.32,0.4,0.66,0.58,1
		c0.34,0.64,0.53,1.31,0.54,2.04c0.01,0.97,0.05,1.93,0.12,2.9c0.04,1.26,0.07,2.51,0.11,3.77c0,0.23,0,0.46-0.01,0.69
		c-0.01,0.12-0.02,0.23-0.03,0.35c-0.09,0.24-0.05,0.48-0.02,0.72c0.14,1.24,0.42,2.45,0.74,3.65c0.15,0.68,0.27,1.37,0.62,2
		c0.18,0.32,0.32,0.67,0.48,1.01c0.14,0.3,0.27,0.61,0.41,0.91c0.02,0,0.03-0.01,0.05-0.01c0-0.59,0-1.18,0-1.77
		c0.01-0.93,0.03-1.86,0.03-2.8c0-1.35-0.02-2.69-0.03-4.04c0-0.17-0.01-0.35-0.02-0.52c-0.01-0.83-0.02-1.65-0.05-2.48
		c-0.02-0.47-0.04-0.94-0.14-1.4c-0.12-0.8-0.36-1.56-0.66-2.3c-0.63-1.55-1.3-3.09-1.93-4.64c-0.52-1.27-0.88-2.58-0.87-3.96
		c0-0.53,0.05-1.05,0.16-1.62c0.02,0.08,0.03,0.1,0.03,0.12c0.25,1.72,0.57,3.42,1.05,5.08c0.26,0.89,0.52,1.79,1.07,2.54
		c0.61,0.83,0.95,1.77,1.2,2.75c0.24,0.93,0.36,1.88,0.48,2.83c0.14,1.6,0.19,3.21,0.13,4.81c-0.05,0.21-0.1,0.43-0.06,0.65
		c0.04,0.24,0.02,0.47,0.01,0.71c-0.01,0.15-0.02,0.3-0.02,0.44c-0.03,1.31-0.06,2.62-0.05,3.94c0,0.08-0.02,0.16,0.03,0.25
		c0.14-0.11,0.22-0.25,0.32-0.39c0.64-0.91,1.13-1.9,1.52-2.94c0.21-0.57,0.42-1.15,0.53-1.75c0.33-1.19,0.46-2.41,0.59-3.63
		c0.08-0.23,0.05-0.47,0.08-0.7c0.11-0.69,0.18-1.38,0.2-2.08c0-0.03,0.02-0.07-0.04-0.08l0.01-0.01c0.05-0.08,0.07-0.16,0.07-0.25
		c0.07-1.12-0.09-2.2-0.65-3.2c-0.34-0.6-0.67-1.21-0.93-1.86c-0.25-0.62-0.36-1.27-0.31-1.94c0.3,0.74,0.69,1.42,1.06,2.12
		c0.42,0.79,0.85,1.56,1.17,2.4c0.28,0.76,0.49,1.53,0.38,2.35c-0.07,0.52-0.13,1.04-0.1,1.56c0.02-0.02,0.04-0.03,0.06-0.05
		c-0.01,0.02-0.03,0.03-0.06,0.05c-0.02,0.58-0.05,1.16-0.07,1.74l0,0c-0.01,0.04-0.03,0.08-0.03,0.12
		c-0.04,1.06-0.14,2.11-0.31,3.15c0,0.03-0.01,0.05-0.01,0.08c0,0.03,0,0.06,0.01,0.09c-0.08,0.06-0.08,0.16-0.09,0.25
		c-0.18,0.85-0.48,1.66-0.89,2.43c-0.88,1.69-1.58,3.47-2.27,5.24c-0.07,0.18-0.06,0.34,0,0.52c0.28,0.92,0.71,1.79,0.93,2.74
		c0.33-0.26,0.57-0.61,0.89-0.89c0.02-0.01,0.04-0.03,0.06-0.04l0,0c0.7-0.43,1.36-0.91,1.98-1.45c0.4-0.3,0.76-0.66,1.14-0.99
		c0.64-0.56,1.33-1.06,1.99-1.59c0.38-0.3,0.7-0.65,0.92-1.09c0.25-0.51,0.5-1.02,0.76-1.53c0.19-0.38,0.4-0.76,0.76-1.02
		c0.26-0.19,0.43-0.43,0.53-0.73c0.14-0.41,0.26-0.82,0.39-1.23c0.02-0.06-0.02-0.18,0.12-0.15c0-0.35,0-0.69,0-1.04
		C282.02,178.95,282.03,178.87,282.01,178.83z M271.07,165.65c-0.27,0.92-0.42,1.86-0.57,2.82c-0.16-0.41-0.49-0.75-0.38-1.26
		c0.15-0.71,0.26-1.42,0.61-2.08c0.15-0.29,0.1-0.61,0.04-0.92c-0.08-0.41-0.25-0.78-0.45-1.15c0.01-0.01,0.02-0.02,0.03-0.03
		C271.07,163.77,271.37,164.62,271.07,165.65z M275.43,174.03c0,0.02,0,0.04,0,0.06C275.43,174.07,275.43,174.05,275.43,174.03z
		 M275.41,173.91c0-0.02,0-0.04,0-0.06C275.41,173.86,275.41,173.89,275.41,173.91z M275.43,174.12c0,0.02-0.01,0.04-0.02,0.06
		C275.42,174.16,275.42,174.14,275.43,174.12z"/>
	<path class="st26" d="M270.95,191.76c-0.03-0.33-0.03-0.34-0.34-0.17c-0.9,0.49-1.81,0.93-2.77,1.28
		c-0.74,0.27-1.49,0.52-2.29,0.59c-0.18,0.02-0.38,0-0.56,0.09c-0.42,0.2-0.88,0.28-1.34,0.3c-1.28,0.05-2.5-0.24-3.7-0.62
		c-0.77-0.24-1.52-0.54-2.28-0.83c-0.6-0.29-1.22-0.55-1.89-0.66c-0.49-0.08-0.98-0.14-1.47-0.2c-0.63-0.08-1.24-0.27-1.86-0.42
		c-0.04-0.04-0.13-0.02-0.15-0.1c0.35,0,0.68,0.12,1.02,0.17c0.81,0.12,1.61,0.28,2.43,0.18c0.62,0.16,1.21,0.37,1.78,0.65
		c0.36,0.17,0.73,0.34,1.11,0.49c1.11,0.47,2.29,0.68,3.47,0.89c0.61,0.11,1.22,0.21,1.88,0.08c-0.07-0.02-0.09-0.03-0.12-0.04
		c-0.94-0.16-1.77-0.56-2.57-1.06c-0.71-0.45-1.4-0.94-2.15-1.33c-1.31-0.7-2.71-1.09-4.16-1.32c-0.01,0-0.01,0.01-0.02,0.01
		c-0.01,0.01-0.02,0.02-0.03,0.02c0.01-0.01,0.02-0.01,0.03-0.02c0.01,0,0.01-0.01,0.02-0.01c-0.07-0.01-0.14-0.03-0.21-0.04
		c-0.03,0-0.06-0.01-0.09-0.01c-0.66-0.14-1.33-0.21-2-0.29c-1.28-0.14-2.57-0.21-3.74-0.8c-0.3-0.18-0.6-0.35-0.87-0.58
		c-0.1-0.09-0.26-0.14-0.29-0.3l0,0c0,0,0,0,0,0c0.1-0.03,0.15,0.05,0.22,0.09c0.85,0.5,1.78,0.81,2.76,0.88
		c1.54,0.11,3.06,0.33,4.56,0.7c0.32,0.09,0.64,0.17,0.95,0.26c1.11,0.33,2.24,0.63,3.29,1.14c0.72,0.35,1.34,0.84,2.01,1.26
		c1.03,0.65,2.18,0.9,3.37,0.93c0.67,0.02,1.33-0.12,1.97-0.32c1.37-0.42,2.61-1.1,3.77-1.95c0.09-0.07,0.14-0.14,0.1-0.25
		c-0.03-0.11-0.13-0.08-0.21-0.08c-0.44-0.02-0.89-0.02-1.34-0.04c-0.96-0.05-1.93-0.12-2.89-0.21c-1.57-0.14-3.13-0.33-4.67-0.66
		c-1.16-0.25-2.3-0.53-3.31-1.18c-0.42-0.27-0.84-0.52-1.29-0.74c-0.68-0.33-1.37-0.61-2.14-0.66c-0.29-0.06-0.59-0.09-0.88-0.09
		c-0.92,0-1.85-0.01-2.77,0c-0.45,0-0.89-0.05-1.33-0.13c-0.96-0.17-1.82-0.56-2.65-1.06c-0.23-0.19-0.5-0.33-0.7-0.57
		c0.09-0.04,0.13,0.03,0.18,0.04c0.8,0.59,1.68,1,2.65,1.23c0.66,0.16,1.34,0.15,2.02,0.11c1.19-0.06,2.39-0.05,3.57,0.18
		c0,0,0,0,0,0c0.02,0.01,0.03,0.03,0.05,0.04c0.88,0.12,1.72,0.37,2.56,0.61c0.72,0.2,1.43,0.43,2.15,0.65l0,0
		c0.02,0.01,0.04,0.02,0.05,0.03c0,0,0.01-0.01,0.01-0.01c-0.02-0.01-0.04-0.02-0.05-0.03c-0.03-0.03-0.06-0.08-0.1-0.1
		c-1.25-0.9-2.58-1.66-4.02-2.21c-0.27-0.1-0.53-0.26-0.84-0.27c-0.24-0.06-0.47-0.14-0.72-0.19c-1.41-0.29-2.78-0.71-4.06-1.38
		c-1.11-0.57-2.11-1.28-3.01-2.15c-0.69-0.79-1.21-1.59-1.22-1.88c0.26,0.34,0.51,0.67,0.76,1l0,0c1.07,1.31,2.34,2.37,3.91,3.05
		c1.18,0.51,2.46,0.61,3.69,0.92c0.1,0.03,0.2,0.07,0.31,0.09c1.5,0.39,2.95,0.92,4.33,1.63c1.01,0.52,2.03,1.02,2.88,1.81
		c0.16,0.15,0.28,0.36,0.51,0.42c0.64,0.14,1.27,0.28,1.91,0.41c1.33,0.27,2.68,0.49,4.04,0.58c0.76,0.05,1.54,0.09,2.3-0.07
		c0.28-0.06,0.3-0.11,0.11-0.33c-1.03-1.17-2.26-2.07-3.65-2.75c-1.12-0.54-2.29-0.92-3.52-1.12c-0.47-0.08-0.93-0.2-1.41-0.23
		c-0.02,0-0.04,0-0.06,0c-0.05,0-0.09,0-0.14,0c-0.02-0.04-0.06-0.04-0.1-0.04c-0.1-0.03-0.2-0.01-0.3,0l0,0
		c-0.07-0.05-0.15-0.05-0.23-0.06c-0.46-0.05-0.93-0.08-1.39-0.19c-0.62-0.14-1.24-0.33-1.85-0.52c-0.22-0.08-0.44-0.17-0.67-0.25
		c-0.88-0.32-1.73-0.72-2.59-1.09l0,0c-0.09-0.05-0.17-0.1-0.26-0.14c-1.52-0.75-3.02-1.56-4.4-2.55c-0.42-0.3-0.82-0.64-1.2-1
		c-0.35-0.33-0.67-0.71-1-1.06c-0.59-0.73-1.17-1.48-1.63-2.3c0.01-0.01,0.03-0.02,0.04-0.03c0.14,0.08,0.24,0.19,0.36,0.3
		c0.51,0.49,0.92,1.05,1.34,1.62c0.18,0.24,0.36,0.49,0.61,0.67c0.3,0.36,0.68,0.64,1.06,0.92l0,0c0.39,0.31,0.8,0.58,1.23,0.83
		c0.71,0.48,1.46,0.9,2.2,1.33c1.32,0.77,2.76,1.24,4.23,1.66c1.52,0.43,3.06,0.79,4.6,1.16c1.21,0.3,2.42,0.58,3.63,0.9
		c1.58,0.43,3.07,1.06,4.37,2.09c0.24,0.19,0.47,0.4,0.73,0.63c-0.02-0.9-0.04-1.75-0.37-2.57c-0.05-0.13-0.13-0.24-0.23-0.35
		c-0.65-0.68-1.36-1.29-2.1-1.87c-0.49-0.39-0.98-0.8-1.53-1.11c-0.64-0.44-1.3-0.83-1.99-1.18c-1.22-0.62-2.41-1.28-3.58-2
		c-0.47-0.29-0.94-0.6-1.44-0.85c-0.68-0.4-1.37-0.76-2.18-0.84c-0.19-0.02-0.38-0.07-0.55-0.15c-0.48-0.21-0.99-0.28-1.51-0.34
		c-0.31-0.04-0.61,0-0.91-0.05c-0.64-0.09-1.27-0.11-1.91-0.14c-0.04,0-0.07,0-0.11-0.01l0,0c-0.08,0-0.15,0-0.23,0.01
		c-0.02-0.01-0.04-0.03-0.06-0.04c-0.03,0-0.07,0-0.1-0.01c-0.11-0.02-0.23-0.03-0.34-0.05c-0.52-0.08-1.05-0.14-1.49-0.44
		c-0.88-0.58-1.42-1.43-1.75-2.42c-0.01-0.04-0.07-0.09,0-0.15c0.02,0.04,0.04,0.07,0.06,0.11c0.97,1.8,2.42,2.77,4.51,2.65
		c0.25,0,0.49,0,0.74,0c0.3,0.01,0.59,0.02,0.89,0.03c0.25,0.02,0.51,0.04,0.82,0.07c-0.34-0.36-0.59-0.7-0.91-0.99
		c0.01-0.05-0.03-0.08-0.06-0.11c-0.03-0.03-0.06-0.07-0.08-0.1c-0.41-0.55-0.87-1.07-1.23-1.67c-0.25-0.42-0.5-0.85-0.8-1.24
		c-0.72-0.93-1.94-1.19-2.97-0.63c-0.01-0.01-0.02-0.02-0.03-0.03c0.3-0.52,0.79-0.73,1.36-0.6c0.25,0.05,0.47,0.16,0.68,0.29
		c0.41,0.25,0.75,0.57,1.08,0.91c0.77,0.81,1.53,1.62,2.34,2.38c0.6,0.64,1.26,1.21,1.89,1.81c0.18,0.18,0.4,0.27,0.64,0.33
		c0.37,0.09,0.74,0.22,1.1,0.35c0.76,0.29,1.48,0.67,2.21,1.04c0.08,0.05,0.15,0.1,0.23,0.14c1.09,0.58,2.18,1.16,3.27,1.75
		c1.42,0.78,2.85,1.55,4.16,2.52c0.26,0.2,0.52,0.41,0.82,0.56l0,0c0.01,0.02,0.03,0.04,0.05,0.01c0,0-0.02-0.02-0.02-0.03
		c-0.19-0.37-0.44-0.7-0.68-1.03c-0.81-1.11-1.57-2.26-2.23-3.47c-0.27-0.5-0.54-1-0.8-1.51c-0.15-0.34-0.33-0.66-0.45-1.01
		c-0.31-0.88-0.72-1.67-1.45-2.3c-0.53-0.46-1.1-0.83-1.69-1.19c-0.01-0.01-0.03-0.01-0.04,0c-0.02,0-0.03-0.01-0.05-0.01
		c-0.69-0.46-1.46-0.76-2.24-1.03c-0.71-0.24-1.42-0.46-2.08-0.83c-1.26-0.7-2.39-1.58-3.55-2.42c-0.63-0.46-1.26-0.91-1.9-1.37
		c-0.09-0.03-0.14,0-0.18,0.09c-0.1,0.24-0.2,0.47-0.24,0.72c-0.03,0.19-0.13,0.26-0.33,0.28c0.06-0.51,0.22-0.99,0.4-1.45
		c0.57-1.41,1.36-2.69,2.42-3.78c0.41-0.42,0.86-0.77,1.4-1c-0.17-0.08-0.31-0.18-0.46-0.29c-0.44-0.34-0.59-0.35-1.06-0.05
		c-0.44,0.29-0.84,0.64-1.22,1.01c-1.63,1.58-3.24,3.19-4.99,4.64c-0.51,0.42-0.77,0.95-0.75,1.62c0.02,0.54-0.02,1.07-0.19,1.59
		c-0.17,0.51-0.31,1.03-0.39,1.56c-0.08,0.57-0.22,1.12-0.45,1.64c-0.11,0.24-0.14,0.49-0.13,0.75c0.01,0.26,0.02,0.53,0.02,0.79
		c-0.31,0.22-0.59,0.46-0.74,0.83c-0.01,0.03-0.04,0.05-0.07,0.02c0,0.26,0,0.53,0,0.79c0.04-0.03,0.06-0.01,0.07,0.02
		c0.18,0.67,0.44,1.32,0.54,2.01c-0.12,0.48-0.2,0.98-0.45,1.42c-0.04,0.07-0.03,0.18-0.16,0.16c0,0.35,0,0.69,0,1.04
		c0.13-0.01,0.09,0.09,0.1,0.15c0.04,0.23,0.07,0.46,0.11,0.68c0.16,1,0.47,1.95,1.08,2.78c-0.01,0.21-0.03,0.41-0.04,0.62
		c-0.02,0.78,0.28,1.41,0.88,1.9c0.28,0.23,0.57,0.45,0.88,0.63c0.15,0.09,0.24,0.21,0.31,0.37c0.49,1.16,1.11,2.22,2.2,2.94
		c0.52,0.34,1,0.75,1.53,1.09c0.34,0.21,0.7,0.39,1.11,0.44c0.76,0.1,1.51,0,2.26-0.13c-0.04-0.05-0.09-0.09-0.14-0.13
		c0.05,0.04,0.1,0.08,0.14,0.13c0.24,0.01,0.43,0.15,0.64,0.23c0.99,0.36,1.97,0.74,2.98,1.04c0.4,0.12,0.8,0.25,1.21,0.35
		c1.4,0.36,2.82,0.6,4.26,0.71c0.06,0,0.18-0.05,0.19,0.09c0.83,0,1.65,0,2.48,0c-0.01-0.12,0.09-0.08,0.14-0.09
		c0.26-0.07,0.52-0.12,0.77-0.2c0.55-0.16,1.03-0.47,1.49-0.81c0.64-0.48,1.15-1.09,1.62-1.73
		C271.01,192.11,270.97,191.94,270.95,191.76z M259.79,187.88L259.79,187.88C259.79,187.88,259.79,187.88,259.79,187.88z
		 M257.81,184.46L257.81,184.46c0.04,0.05,0.08,0.09,0.12,0.14C257.88,184.55,257.84,184.51,257.81,184.46z M261.38,185.39
		c0.01-0.04,0.02-0.09,0.02-0.13C261.4,185.31,261.39,185.35,261.38,185.39z M258.35,185.05c-0.04-0.04-0.08-0.09-0.13-0.13
		C258.27,184.97,258.31,185.01,258.35,185.05z M258.17,184.86c-0.06-0.06-0.12-0.13-0.19-0.19
		C258.04,184.73,258.1,184.8,258.17,184.86z M246.57,184.93c-0.01,0.01-0.02,0.02-0.04,0.04l0,0l0,0
		C246.55,184.96,246.56,184.95,246.57,184.93L246.57,184.93z M246.14,175.86c0,0.01,0,0.02,0.01,0.03
		C246.15,175.88,246.14,175.87,246.14,175.86z M247.69,187.64L247.69,187.64c-0.01,0-0.02,0-0.03,0
		C247.67,187.64,247.68,187.64,247.69,187.64z M247.49,187.25c0.02-0.03,0.02-0.07,0.02-0.12
		C247.51,187.18,247.51,187.22,247.49,187.25z M247.47,187.28c0,0,0.01-0.01,0.01-0.01C247.48,187.27,247.47,187.28,247.47,187.28z
		 M247.63,187.61c0.01,0.01,0.01,0.02,0.03,0.02C247.64,187.63,247.63,187.62,247.63,187.61z M247.71,187.7
		c0-0.01-0.01-0.01-0.01-0.02C247.7,187.68,247.71,187.69,247.71,187.7z M247.73,187.71c0.01,0,0.03,0,0.06-0.02l0,0
		C247.76,187.71,247.74,187.71,247.73,187.71z M254.71,192.37c0.03,0.01,0.06,0.03,0.09,0.04
		C254.77,192.4,254.74,192.39,254.71,192.37z"/>
	<polygon class="st26" points="251.75,166.8 251.75,166.81 251.76,166.81 	"/>
	<polygon class="st26" points="251.75,166.8 251.76,166.81 251.75,166.8 	"/>
	<path class="st26" d="M251.98,166.83c0.42,0.13,0.81,0.33,1.19,0.54c1.21,0.66,2.33,1.47,3.49,2.22c0.5,0.33,1.03,0.61,1.62,0.71
		c1.12,0.2,2.15,0.64,3.14,1.17c0.2,0.11,0.39,0.21,0.6,0.32c0-0.04,0.01-0.04,0-0.05c-0.03-0.11-0.07-0.22-0.1-0.33
		c-0.51-1.69-1.31-3.2-2.73-4.33c-0.55-0.44-1.01-0.98-1.32-1.62c-0.07-0.13-0.13-0.1-0.23-0.07c-0.32,0.11-0.64,0.23-1.05,0.22
		c0.34-0.15,0.62-0.28,0.91-0.39c0.18-0.07,0.25-0.16,0.17-0.35c-0.03-0.07-0.01-0.17-0.02-0.32c0.08,0.12,0.12,0.16,0.15,0.22
		c0.09,0.23,0.21,0.17,0.37,0.06c0.49-0.34,0.81-0.77,0.94-1.37c0.2-0.98,0.42-1.95,1.03-2.78c-0.3,0.09-0.55,0.3-0.82,0.45
		c-0.38,0.22-0.74,0.48-1.19,0.53c-0.75,0.09-1.51,0.14-2.27,0.12c-0.01,0-0.02,0-0.02,0.01c-0.91,0.35-1.12,1.16-1.3,1.98
		c-0.12,0.54-0.15,1.08,0.03,1.61c0.08,0.24,0.2,0.45,0.36,0.64c-0.17,0.13-0.26,0.05-0.33-0.1c-0.4-0.86-0.53-1.74-0.3-2.67
		c0.03-0.14,0.07-0.29,0.11-0.48c-0.35,0.24-0.61,0.51-0.81,0.82c-0.63,0.98-1.24,1.96-1.86,2.95c-0.06,0.09-0.1,0.17,0,0.25
		C251.84,166.75,251.91,166.81,251.98,166.83z"/>
	<path class="st26" d="M271.03,192.32c-0.01-0.01-0.02-0.02-0.03-0.03C271,192.32,271.01,192.33,271.03,192.32z"/>
</g>
<g>
	<path class="st26" d="M496.47,168.69c-2.32-1.52-3.67-4.87-3.06-7.64c0.09-0.4,0.22-0.78,0.33-1.18c-0.48-0.14-1.09-0.07-1.71,0.24
		c-1.25,0.64-2.21,1.58-2.79,2.86c-1.06,2.34-2.34,4.55-4.01,6.49c-1.3,1.52-2.7,2.96-4.08,4.4c-1.13,1.18-2.2,2.41-3.05,3.82
		c-1.43,2.39-2.21,4.95-2.08,7.75c0.07,1.64,0.4,3.24,0.92,4.79c0.45,1.33,1.25,2.42,2.36,3.28c0.92,0.71,1.93,1.22,3.07,1.42h1.91
		c0.9-0.13,1.76-0.38,2.59-0.73c3.17-1.32,5.57-3.52,7.37-6.42c1.54-2.47,2.5-5.18,3.21-7.98c0.73-2.89,1.18-5.82,1.48-8.78
		c0.05-0.48,0.09-0.96,0.13-1.45c-0.11-0.02-0.18-0.03-0.25-0.04C497.96,169.44,497.18,169.16,496.47,168.69z"/>
	<path class="st26" d="M503.69,163.17c-0.19-0.25-0.53-0.33-0.72-0.15c-0.07,0.07-0.13,0.19-0.13,0.28c0,0.08,0.1,0.15,0.12,0.18
		c0.07-0.13,0.1-0.28,0.19-0.32c0.18-0.09,0.35,0,0.41,0.19c0.08,0.26-0.03,0.47-0.19,0.66c-0.31,0.35-0.7,0.6-1.15,0.71
		c-0.57,0.15-1.1-0.07-1.39-0.58c-0.14-0.25-0.25-0.52-0.3-0.79c-0.18-0.99-0.36-1.99-0.5-2.98c-0.24-1.7-0.75-3.29-1.79-4.68
		c-0.1-0.13-0.18-0.28-0.26-0.42c-0.54-1.02-0.21-2.18,0.78-2.77c0.06-0.04,0.12-0.08,0.18-0.12c-0.29-0.25-0.59-0.2-0.89-0.08
		c-1.35,0.56-2.1,1.58-2.36,2.99c-0.04,0.23-0.13,0.35-0.36,0.42c-0.54,0.16-1.08,0.36-1.62,0.54c-1.53,0.49-2.73,1.39-3.58,2.76
		c-0.24,0.38-0.52,0.73-0.8,1.08c-0.53,0.65-1.2,1.1-2.01,1.33c-0.41,0.12-0.79,0.13-1.09-0.21c-0.32-0.35-0.43-0.77-0.29-1.23
		c0.12-0.41,0.57-0.7,0.93-0.6c0.17,0.04,0.36,0.12,0.33,0.34c-0.03,0.21-0.19,0.27-0.39,0.24c0,0-0.01,0.02-0.03,0.05
		c0.17,0.14,0.35,0.1,0.46-0.04c0.08-0.11,0.12-0.31,0.09-0.44c-0.07-0.25-0.3-0.33-0.55-0.33c-0.46,0-0.99,0.36-1.1,0.81
		c-0.08,0.31-0.13,0.64-0.11,0.95c0.11,1.41,1.45,2.22,2.62,1.57c0.51-0.29,1-0.66,1.41-1.08c0.57-0.58,1.16-1.13,1.86-1.54
		c0.4-0.24,0.85-0.44,1.3-0.58c0.59-0.19,1.21-0.19,1.77,0.01c-0.12,0.34-0.29,0.65-0.35,0.99c-0.25,1.28-0.29,2.57-0.02,3.86
		c0.49,2.25,2.62,4.28,4.85,4.61c0.83,0.13,1.53-0.17,2.12-0.75c-0.71,0.38-1.39,0.3-2.01-0.16c-0.25-0.19-0.48-0.43-0.67-0.69
		c-0.74-1.03-0.99-2.2-0.81-3.45c0.1-0.7,0.25-1.38,0.38-2.07c0.03,0,0.05,0.01,0.08,0.01c-0.01,0.08-0.01,0.16-0.03,0.24
		c-0.24,0.88,0.07,1.58,0.67,2.22c0.55,0.59,1.19,1,1.97,1.2c1.09,0.28,2.41-0.03,3.13-1.42c0-0.17,0-0.33,0-0.5
		C503.79,163.32,503.75,163.24,503.69,163.17z"/>
	<path class="st26" d="M499.28,167.52c0.04-0.75,0.08-1.46,0.11-2.17c0-0.06-0.02-0.15-0.07-0.19c-0.42-0.39-0.85-0.77-1.26-1.15
		C497.75,165.37,498.23,166.97,499.28,167.52z"/>
</g>
<g>
	<path class="st26" d="M132.74,167.52c-0.2-0.42-0.21-0.84-0.21-1.28c0-0.06,0-0.11-0.01-0.17c-0.11-1.33-1.14-2.11-2.44-1.85
		c-0.66,0.13-1.17,0.52-1.59,1.04c-0.07,0.09-0.15,0.18-0.22,0.28c-0.41-0.28-0.85-0.4-1.33-0.34c-0.73,0.09-1.33,0.47-1.83,0.96
		c-0.52,0.51-0.72,1.19-0.69,1.93c0.02,0.53,0.21,1.03,0.4,1.52c0.21,0.52,0.42,1.04,0.63,1.56c-0.54-0.08-1.2-0.03-1.67,0.12
		c-0.58,0.19-0.78,0.45-0.75,1.06c0.02,0.4-0.09,0.76-0.33,1.06c-0.19,0.24-0.4,0.47-0.63,0.69c-0.69,0.67-1.04,1.46-0.9,2.43
		c0.09,0.62,0.34,1.18,0.62,1.73c0.13,0.25,0.24,0.5,0.35,0.76c0.05,0.13,0.01,0.24-0.12,0.3c-0.24,0.12-0.47,0.24-0.72,0.35
		c-0.44,0.19-0.84,0.45-1.15,0.81c-0.7,0.8-0.8,1.56-0.33,2.51c0.13,0.26,0.3,0.5,0.42,0.77c0.18,0.38,0.35,0.76,0.48,1.15
		c0.11,0.36,0.03,0.49-0.3,0.66c-0.32,0.16-0.64,0.32-0.96,0.46c-0.91,0.41-1.52,1.07-1.82,2.02c-0.1,0.31-0.19,0.63-0.27,0.95
		c-0.14,0.52-0.27,1.04-0.38,1.56c-0.02,0.11,0,0.25,0.05,0.36c0.16,0.33,0.45,0.54,0.77,0.7c0.13,0.06,0.26,0.13,0.39,0.2
		c0.76,0.45,1.57,0.76,2.44,0.93c0.08,0.02,0.19,0,0.26-0.04c1.24-0.73,2.2-1.75,3.01-2.93c0.03-0.05,0.05-0.1,0.06-0.16
		c0.08-0.42,0.16-0.84,0.25-1.27c0.3-1.47,0.52-2.94,0.64-4.43c0.08-0.98,0.13-1.96,0.02-2.94c-0.12-1.06-0.37-2.08-0.69-3.09
		c-0.02-0.06,0.01-0.14,0.02-0.22c0.05,0.05,0.13,0.09,0.15,0.14c1.02,2.9,1.36,5.87,0.85,8.92c-0.02,0.14-0.04,0.28-0.06,0.41
		c-0.02,0.14-0.04,0.27-0.07,0.41c0.06-0.05,0.08-0.11,0.11-0.17c0.93-2.24,1.39-4.59,1.64-6.98c0.18-1.69,0.3-3.38,0.47-5.07
		c0.11-1.05,0.3-2.09,0.68-3.09c0.13-0.34,0.31-0.64,0.62-0.92c-0.02,0.1-0.02,0.16-0.04,0.21c-0.12,0.39-0.24,0.79-0.36,1.18
		c-0.43,1.41-0.53,2.87-0.57,4.34c-0.06,1.71-0.11,3.42-0.34,5.12c-0.26,1.89-0.68,3.75-1.37,5.53c-0.69,1.78-1.65,3.39-3.04,4.72
		c-0.14,0.14-0.29,0.27-0.44,0.42c0.04,0.01,0.05,0.02,0.06,0.02c0.03,0,0.06,0,0.09,0c0.99-0.08,1.91-0.37,2.74-0.93
		c1.15-0.78,1.91-1.88,2.45-3.14c0.73-1.71,0.87-3.52,0.82-5.35c-0.04-1.46-0.14-2.91-0.18-4.37c-0.04-1.86,0.08-3.71,0.64-5.5
		c0.24-0.76,0.49-1.53,1.01-2.15c0.37-0.44,0.8-0.83,1.22-1.22c0.44-0.42,0.91-0.8,1.24-1.33
		C132.79,168.44,132.95,167.98,132.74,167.52z"/>
	<path class="st26" d="M116.45,191.2c-0.24-0.23-0.41-0.51-0.19-0.86c0.03-0.04,0.02-0.1,0.04-0.15c0.15-0.63,0.29-1.26,0.46-1.88
		c0.29-1.12,0.96-1.92,2.04-2.36c0.31-0.13,0.61-0.29,0.91-0.44c0.19-0.09,0.3-0.25,0.24-0.46c-0.08-0.31-0.16-0.63-0.3-0.91
		c-0.19-0.41-0.44-0.8-0.64-1.2c-0.21-0.41-0.35-0.84-0.25-1.3c0.17-0.78,0.64-1.33,1.3-1.75c0.07-0.04,0.14-0.08,0.26-0.15
		c-0.2-0.23-0.36-0.46-0.55-0.65c-0.17-0.17-0.37-0.31-0.56-0.45c-0.49-0.36-0.8-0.83-0.94-1.43c-0.12-0.51-0.08-1.02,0.11-1.51
		c0.12-0.31,0.24-0.63,0.18-0.98c-0.14-0.97-1.02-1.73-2-1.72c-0.27,0-0.53,0.03-0.8,0.03c-0.47,0-0.51-0.04-0.43-0.52
		c0.05-0.29,0.11-0.58,0.16-0.88c0.15-0.97-0.19-1.72-0.96-2.31c-0.5-0.38-1.06-0.64-1.66-0.82c-0.44-0.13-0.88-0.25-1.31-0.38
		c-0.9-0.26-1.65-0.75-2.21-1.52c-0.15-0.22-0.31-0.44-0.51-0.61c-0.28-0.26-0.57-0.53-0.9-0.71c-1.31-0.7-2.97-0.25-3.96,0.91
		c-0.16,0.19-0.05,0.42,0.22,0.46c0.11,0.02,0.23,0.02,0.34,0.05c0.65,0.17,1.18,0.54,1.63,1.04c0.61,0.68,1,1.49,1.34,2.32
		c0.62,1.57,1,3.2,1.33,4.85c0.47,2.33,0.87,4.67,1.35,6.99c0.32,1.59,0.69,3.16,1.1,4.73c0.36,1.36,0.91,2.65,1.71,3.81
		c0.63,0.92,1.4,1.68,2.48,2.08c0.06,0.02,0.13,0.04,0.23,0.08c-0.04-0.05-0.05-0.07-0.07-0.09c-0.61-0.7-1.06-1.49-1.4-2.35
		c-0.69-1.73-1.06-3.55-1.4-5.37c-0.29-1.55-0.58-3.1-0.9-4.64c-0.42-2-1.09-3.92-1.75-5.85c-0.47-1.38-0.91-2.78-1.37-4.16
		c-0.02-0.07-0.03-0.16-0.05-0.23c0.02-0.01,0.04-0.01,0.06-0.02c0.03,0.05,0.06,0.1,0.08,0.16c0.59,1.37,1.15,2.74,1.77,4.1
		c1.01,2.23,1.76,4.54,2.23,6.94c0.01,0.04,0.02,0.08,0.05,0.17c0.06-0.75,0.14-1.45,0.18-2.15c0.06-0.95,0.09-1.91,0.15-2.86
		c0.03-0.46,0.11-0.9,0.38-1.33c-0.03,0.7-0.09,1.35-0.1,2.01c-0.02,1.33-0.01,2.66-0.02,3.99c-0.01,1-0.02,2,0.12,3
		c0.1,0.69,0.22,1.38,0.32,2.06c0.05,0.35,0.02,0.72,0.11,1.05c0.25,0.91,0.52,1.81,0.83,2.7c0.36,1.03,0.91,1.94,1.71,2.7
		c0.37,0.35,0.76,0.58,1.29,0.44c0.03-0.01,0.06,0,0.09-0.01c0.39-0.07,0.78-0.14,1.18-0.21c0-0.02,0-0.05,0-0.07
		c-0.75-0.2-1.42-0.56-2.08-0.94C116.85,191.5,116.63,191.37,116.45,191.2z"/>
	<path class="st26" d="M110.99,167.37c0.75,0.33,1.54,0.53,2.35,0.68c1.11,0.21,1.96,0.75,2.47,1.78c0.32,0.65,0.44,1.32,0.14,2.01
		c-0.12,0.28,0,0.52,0.29,0.61c0.27,0.08,0.54,0.13,0.81,0.21c0.44,0.12,0.89,0.23,1.33,0.38c0.36,0.12,0.64,0.37,0.72,0.75
		c0.05,0.24,0.06,0.5,0.04,0.75c-0.05,0.63-0.12,1.26-0.17,1.74c-0.05,1.32,0.57,2.11,1.7,2.34c0.14,0.03,0.27,0.02,0.34-0.13
		c0.07-0.15,0-0.25-0.13-0.33c-0.33-0.21-0.54-0.51-0.6-0.89c-0.05-0.28-0.07-0.57-0.05-0.85c0.06-0.86,0.41-1.61,0.98-2.26
		c0.43-0.5,0.78-1.04,1.02-1.66c0.17-0.43,0.27-0.88,0.28-1.35c0.01-0.47-0.21-0.86-0.42-1.26c-0.23-0.43-0.59-0.67-1.04-0.79
		c-0.17-0.04-0.33-0.07-0.5-0.11c-0.36-0.09-0.49-0.27-0.47-0.65c0.01-0.14,0.04-0.29,0.07-0.43c0.07-0.26,0.14-0.52,0.22-0.79
		c0.19-0.69-0.29-1.86-1.26-2.05c-0.47-0.09-0.95-0.15-1.42-0.22c-0.62-0.09-1.03-0.42-1.2-1.03c-0.04-0.15-0.1-0.3-0.16-0.45
		c-0.16-0.38-0.45-0.61-0.85-0.68c-0.2-0.03-0.4-0.04-0.6-0.03c-0.28,0.02-0.55,0.07-0.83,0.11c-0.52,0.08-0.87-0.1-1.12-0.56
		c-0.14-0.26-0.27-0.52-0.41-0.77c-0.27-0.45-0.63-0.81-1.12-1.02c-0.8-0.36-1.9-0.1-2.19,0.94c-0.04,0.14-0.09,0.28-0.09,0.43
		c-0.03,1.06-0.07,2.11-0.06,3.17c0.01,0.54,0.17,1.06,0.58,1.47C110.02,166.83,110.47,167.15,110.99,167.37z"/>
	<path class="st26" d="M120.65,161.41c-0.14-0.02-0.28-0.04-0.41-0.07c-0.68-0.17-1.24,0.05-1.65,0.58
		c-0.23,0.29-0.42,0.64-0.55,0.99c-0.28,0.76,0.06,1.29,0.84,1.47c0.43,0.1,0.86,0.23,1.27,0.4c0.69,0.28,0.92,0.67,0.87,1.41
		c-0.03,0.44-0.1,0.87-0.13,1.3c-0.04,0.66,0.22,1.05,0.85,1.27c0.15,0.05,0.3,0.09,0.45,0.14c0.34,0.1,0.58,0.31,0.72,0.63
		c0.11,0.26,0.19,0.54,0.28,0.81c0.08,0.25,0.21,0.36,0.48,0.35c0.23-0.01,0.47-0.04,0.7-0.07c0.15-0.02,0.21-0.13,0.17-0.28
		c-0.19-0.64-0.38-1.27-0.56-1.91c-0.07-0.24-0.13-0.48-0.14-0.72c-0.06-0.88,0.27-1.64,0.77-2.33c0.39-0.55,0.93-0.89,1.62-0.94
		c0.36-0.03,0.72-0.04,1.08-0.07c0.4-0.03,0.81-0.06,1.14-0.3c0.28-0.21,0.58-0.35,0.91-0.44c0.24-0.06,0.38-0.22,0.4-0.47
		c0.03-0.37,0.06-0.73,0.1-1.09c-0.03-0.39-0.05-0.77-0.1-1.14c-0.11-0.89-0.33-1.75-0.82-2.52c-0.3-0.47-0.68-0.85-1.21-1.06
		c-0.33-0.13-0.61-0.06-0.83,0.22c-0.08,0.11-0.15,0.23-0.2,0.36c-0.12,0.29-0.31,0.54-0.56,0.73c-0.14,0.11-0.28,0.21-0.42,0.33
		c-0.17,0.15-0.37,0.21-0.58,0.16c-0.3-0.06-0.59-0.14-0.88-0.22c-0.91-0.24-1.52,0.01-1.99,0.82c-0.12,0.21-0.21,0.43-0.32,0.65
		c-0.1,0.19-0.18,0.39-0.29,0.57C121.4,161.31,121.08,161.48,120.65,161.41z"/>
	<path class="st26" d="M113.78,161.73c0.08,0.05,0.17,0.08,0.26,0.09c0.42,0.03,0.83,0.05,1.25,0.09c0.61,0.06,1.18,0.22,1.62,0.69
		c0.06,0.07,0.22,0.08,0.33,0.07c0.23-0.03,0.3-0.25,0.36-0.43c0.17-0.55,0.56-0.88,1.03-1.16c0.51-0.3,1.04-0.55,1.66-0.48
		c0.74,0.05,0.97-0.13,1.1-0.86c0.1-0.56,0.07-1.12-0.07-1.68c-0.42-1.58-1.4-2.76-2.75-3.64c-0.55-0.36-1.16-0.64-1.82-0.74
		c-0.42-0.07-0.68,0.28-0.52,0.67c0.01,0.02,0.02,0.05,0.03,0.07c0.3,0.71,0.25,1.39-0.25,1.98c-0.37,0.44-0.79,0.85-1.21,1.26
		c-0.77,0.76-1.38,1.61-1.55,2.72C113.17,160.96,113.34,161.45,113.78,161.73z"/>
</g>
</svg>
